<svg width="1294" height="1294" viewBox="0 0 1294 1294" fill="none" xmlns="http://www.w3.org/2000/svg">
<path fill-rule="evenodd" clip-rule="evenodd" d="M647 1294C1004.33 1294 1294 1004.33 1294 647C1294 289.672 1004.33 0 647 0C289.672 0 0 289.672 0 647C0 1004.33 289.672 1294 647 1294ZM582.461 603.5C593.04 623.03 611.802 637.903 629.856 643.915C593.315 642.868 555.232 626.438 528.703 596.567C499.913 564.149 484.529 515.657 499.984 453.247L507.181 472.551L513.74 470.105L500.97 435.857L473.156 460.194L477.766 465.462L493.063 452.077C477.316 516.288 493.094 567.013 523.469 601.215C551.597 632.886 592.068 650.18 630.896 650.942C593.151 658.831 545.554 654.709 503.238 633.852C504.001 634.756 504.765 635.665 505.531 636.577L505.532 636.578L505.533 636.579C522.979 657.33 541.873 679.806 577.025 680.761C599.229 681.365 621.49 672.553 635.724 659.923C616.546 691.046 583.275 715.811 544.142 723.85C501.673 732.574 451.985 721.651 405.664 677.062L425.98 680.481L427.142 673.578L391.097 667.513L398.267 703.769L405.133 702.411L401.19 682.471C448.925 728.214 500.743 739.911 545.55 730.707C587.042 722.184 622.254 695.782 642.328 662.538C630.287 699.169 602.919 738.328 563.7 764.546C564.864 764.337 566.033 764.13 567.206 763.922L567.208 763.922C593.902 759.19 622.814 754.064 641.217 724.099C652.841 705.172 656.341 681.488 652.521 662.846C669.885 695.016 674.697 736.212 662.092 774.121C648.413 815.263 614.109 852.832 552.334 870.653L565.452 854.767L560.055 850.31L536.78 878.494L571.763 890.413L574.021 883.786L554.78 877.231C618.263 858.763 654.302 819.737 668.734 776.33C682.099 736.135 676.84 692.438 658.086 658.432C683.791 687.175 704.02 730.457 707.115 777.532C707.517 776.42 707.922 775.303 708.329 774.182C717.578 748.698 727.595 721.096 710.846 690.175C700.267 670.645 681.505 655.772 663.451 649.76C699.992 650.807 738.075 667.238 764.604 697.109C793.394 729.526 808.777 778.019 793.323 840.428L786.126 821.124L779.567 823.57L792.337 857.818L820.151 833.481L815.541 828.213L800.244 841.598C815.991 777.387 800.213 726.663 769.838 692.461C741.71 660.789 701.238 643.495 662.411 642.733C700.155 634.845 747.752 638.966 790.067 659.822C789.305 658.919 788.541 658.011 787.775 657.099L787.774 657.098L787.773 657.097L787.773 657.097C770.327 636.345 751.433 613.87 716.281 612.915C694.077 612.311 671.816 621.123 657.582 633.753C676.76 602.63 710.031 577.864 749.164 569.825C791.633 561.101 841.321 572.025 887.642 616.613L867.325 613.195L866.164 620.098L902.209 626.162L895.039 589.907L888.173 591.265L892.115 611.205C844.381 565.462 792.563 553.764 747.756 562.969C706.264 571.492 671.052 597.894 650.978 631.137C663.019 594.506 690.387 555.347 729.606 529.129C728.488 529.33 727.365 529.529 726.238 529.729L726.099 529.753H726.098C699.404 534.486 670.492 539.611 652.089 569.577C640.465 588.503 636.965 612.188 640.785 630.829C623.421 598.66 618.609 557.464 631.214 519.554C644.893 478.413 679.197 440.844 740.972 423.023L727.854 438.908L733.251 443.365L756.526 415.182L721.543 403.263L719.285 409.889L738.526 416.444C675.043 434.912 639.004 473.939 624.571 517.345C611.207 557.54 616.466 601.237 635.219 635.244C609.516 606.501 589.287 563.22 586.191 516.145C585.79 517.257 585.385 518.373 584.978 519.493C575.729 544.978 565.712 572.579 582.461 603.5ZM786.364 503.751C808.291 485.14 829.999 456.218 825.096 425.235C814.631 359.108 854.553 341.255 891.113 334.58C887.833 333.316 884.32 331.901 880.587 330.397L880.566 330.388C831.073 310.448 742.976 274.955 644.995 369.29C617.559 395.705 600.97 424.851 592.592 454.3C587.438 426.005 573.245 392.745 543.961 381.5C481.461 357.5 485.961 314 498.461 279C495.726 281.209 492.744 283.544 489.575 286.024L489.557 286.039C447.542 318.93 372.755 377.478 405.461 509.5C414.619 546.468 431.566 575.408 452.88 597.388C425.8 587.704 389.898 583.365 365.518 603.103C313.483 645.23 278.061 619.582 254 591.257C254.547 594.737 255.079 598.495 255.644 602.488C263.121 655.32 276.432 749.361 407.119 787.047C443.713 797.6 477.249 797.394 506.942 789.925C485.015 808.536 463.306 837.457 468.21 868.441C478.675 934.567 438.753 952.42 402.192 959.095C405.472 960.359 408.983 961.773 412.714 963.276L412.719 963.278L412.74 963.287C462.233 983.227 550.33 1018.72 648.311 924.385C675.747 897.97 692.337 868.823 700.715 839.374C705.868 867.668 720.061 900.93 749.346 912.175C811.846 936.175 807.346 979.675 794.846 1014.68C797.584 1012.46 800.569 1010.13 803.74 1007.64L803.75 1007.64C845.765 974.745 920.552 916.197 887.846 784.175C878.688 747.208 861.742 718.268 840.427 696.288C867.508 705.972 903.408 710.311 927.788 690.573C979.823 648.446 1015.25 674.093 1039.31 702.418C1038.76 698.938 1038.23 695.181 1037.66 691.187C1030.18 638.356 1016.87 544.314 886.187 506.628C849.593 496.075 816.057 496.281 786.364 503.751Z" fill="#EECC11"/>
</svg>
