<svg width="600" height="600" viewBox="0 0 600 600" fill="none" xmlns="http://www.w3.org/2000/svg">
<path fill-rule="evenodd" clip-rule="evenodd" d="M300 600C465.685 600 600 465.685 600 300C600 134.315 465.685 0 300 0C134.315 0 0 134.315 0 300C0 465.685 134.315 600 300 600ZM270.075 279.83C274.98 288.886 283.679 295.782 292.051 298.57C275.107 298.084 257.449 290.466 245.148 276.615C231.799 261.584 224.666 239.099 231.832 210.161L235.169 219.112L238.21 217.978L232.289 202.098L219.392 213.382L221.53 215.825L228.623 209.618C221.321 239.392 228.637 262.912 242.721 278.77C255.764 293.456 274.529 301.475 292.533 301.828C275.032 305.486 252.962 303.575 233.341 293.904C233.694 294.323 234.048 294.744 234.404 295.167L234.404 295.167L234.405 295.168C242.494 304.79 251.255 315.211 267.554 315.654C277.849 315.934 288.171 311.848 294.771 305.992C285.879 320.423 270.452 331.906 252.307 335.634C232.615 339.679 209.576 334.614 188.098 313.939L197.518 315.524L198.056 312.323L181.343 309.511L184.668 326.323L187.852 325.693L186.023 316.447C208.157 337.657 232.184 343.081 252.96 338.813C272.199 334.861 288.526 322.619 297.834 307.205C292.251 324.19 279.561 342.347 261.376 354.504L261.802 354.427L262.392 354.322L263.002 354.214C275.38 352.02 288.785 349.643 297.319 335.749C302.709 326.973 304.331 315.991 302.56 307.348C310.611 322.264 312.842 341.365 306.998 358.943C300.655 378.02 284.749 395.44 256.105 403.703L262.188 396.337L259.685 394.27L248.893 407.339L265.114 412.865L266.161 409.793L257.24 406.753C286.675 398.19 303.386 380.094 310.078 359.968C316.275 341.33 313.836 321.069 305.141 305.301C317.059 318.628 326.439 338.697 327.874 360.525C327.944 360.331 328.014 360.137 328.085 359.942C328.197 359.631 328.311 359.319 328.424 359.007L328.437 358.972C332.725 347.155 337.37 334.357 329.604 320.02C324.699 310.964 315.999 304.068 307.628 301.28C324.571 301.765 342.23 309.384 354.531 323.234C367.88 338.266 375.013 360.75 367.847 389.688L364.51 380.738L361.468 381.872L367.39 397.752L380.286 386.467L378.149 384.025L371.056 390.231C378.358 360.458 371.042 336.938 356.957 321.079C343.915 306.394 325.149 298.375 307.146 298.021C324.647 294.364 346.716 296.275 366.337 305.945C365.984 305.527 365.63 305.106 365.274 304.683L365.274 304.682L365.273 304.682C357.184 295.06 348.423 284.638 332.124 284.195C321.829 283.915 311.507 288.001 304.907 293.857C313.799 279.426 329.226 267.943 347.371 264.216C367.063 260.171 390.102 265.236 411.58 285.91L402.16 284.325L401.622 287.526L418.335 290.338L415.011 273.527L411.827 274.157L413.655 283.403C391.521 262.192 367.495 256.769 346.718 261.036C327.479 264.988 311.152 277.23 301.844 292.645C307.427 275.66 320.118 257.502 338.303 245.346C337.78 245.44 337.255 245.533 336.728 245.626L336.69 245.633L336.676 245.635C324.299 247.83 310.893 250.206 302.359 264.1C296.97 272.876 295.347 283.858 297.118 292.502C289.067 277.586 286.836 258.484 292.68 240.906C299.023 221.83 314.929 204.41 343.573 196.147L337.49 203.512L339.993 205.579L350.785 192.511L334.564 186.984L333.517 190.057L342.438 193.096C313.003 201.659 296.292 219.755 289.6 239.882C283.403 258.519 285.842 278.781 294.538 294.549C282.619 281.221 273.24 261.153 271.804 239.325C271.729 239.535 271.653 239.744 271.577 239.954C271.469 240.252 271.361 240.551 271.252 240.85L271.242 240.878C266.953 252.694 262.309 265.493 270.075 279.83ZM364.62 233.578C374.787 224.949 384.853 211.539 382.579 197.172C377.727 166.511 396.238 158.233 413.19 155.138C411.67 154.552 410.043 153.896 408.314 153.2L408.31 153.198L408.299 153.194C385.351 143.948 344.502 127.491 299.07 171.232C286.349 183.48 278.657 196.994 274.772 210.649C272.382 197.529 265.801 182.107 252.223 176.893C223.243 165.765 225.33 145.595 231.126 129.366C229.861 130.388 228.483 131.467 227.019 132.613L227.013 132.617L227.009 132.621L226.997 132.63C207.516 147.881 172.838 175.029 188.004 236.244C192.25 253.385 200.108 266.804 209.991 276.996C197.434 272.506 180.788 270.494 169.483 279.646C145.355 299.179 128.931 287.287 117.774 274.153C118.028 275.767 118.274 277.509 118.536 279.361C122.004 303.858 128.175 347.463 188.772 364.937C205.74 369.83 221.29 369.735 235.058 366.271C224.891 374.901 214.825 388.311 217.099 402.677C221.951 433.339 203.44 441.617 186.488 444.712C188.007 445.297 189.633 445.952 191.361 446.648L191.369 446.652L191.372 446.653L191.379 446.655C214.327 455.901 255.176 472.359 300.608 428.618C313.33 416.369 321.022 402.855 324.906 389.199C327.296 402.319 333.877 417.742 347.456 422.956C376.435 434.084 374.349 454.254 368.553 470.483C369.823 469.458 371.207 468.374 372.677 467.223L372.682 467.219C392.163 451.968 426.84 424.821 411.675 363.605C407.429 346.464 399.571 333.046 389.688 322.854C402.245 327.344 418.891 329.356 430.196 320.204C454.323 300.671 470.747 312.562 481.904 325.696C481.65 324.083 481.404 322.34 481.142 320.489C477.675 295.992 471.503 252.387 410.906 234.913C393.938 230.019 378.388 230.115 364.62 233.578Z" fill="#D2B48C"/>
</svg>
